<?xml version="1.0" standalone="no"?><!DOCTYPE svg PUBLIC "-//W3C//DTD SVG 1.1//EN" "http://www.w3.org/Graphics/SVG/1.1/DTD/svg11.dtd">
<svg t="1706523943228" class="icon" viewBox="0 0 1024 1024" version="1.1"
    xmlns="http://www.w3.org/2000/svg" p-id="1254"
    xmlns:xlink="http://www.w3.org/1999/xlink" width="200" height="200">
    <path d="M627.2 640.768V488a32 32 0 0 1 32-32h268.8a32 32 0 0 1 32 32V928a32 32 0 0 1-32 32h-268.8a32 32 0 0 1-32-32v-208.768L544 803.2l-138.688-140.032 38.848-39.168 99.84 100.8 83.2-84.032zM904.512 512h-221.824v392h221.824V512zM183.488 512v392h221.824V512H183.488zM428.8 960H160a32 32 0 0 1-32-32V488a32 32 0 0 1 32-32h268.8a32 32 0 0 1 32 32V928a32 32 0 0 1-32 32zM960 232c0 95.168-72.128 168-166.4 168S627.2 327.168 627.2 232 699.328 64 793.6 64 960 136.832 960 232z m-55.488 0c0-61.568-49.92-112-110.912-112-60.992 0-110.912 50.368-110.912 112s49.92 112 110.912 112c60.992 0 110.912-50.368 110.912-112z m-443.712 0c0 95.168-72.128 168-166.4 168S128 327.168 128 232 200.128 64 294.4 64s166.4 72.832 166.4 168z m-55.488 0c0-61.568-49.92-112-110.912-112-60.992 0-110.912 50.368-110.912 112s49.92 112 110.912 112c60.992 0 110.912-50.368 110.912-112z" fill="#333333" p-id="1255"></path>
</svg>