<?xml version="1.0" standalone="no"?><!DOCTYPE svg PUBLIC "-//W3C//DTD SVG 1.1//EN" "http://www.w3.org/Graphics/SVG/1.1/DTD/svg11.dtd">
<svg t="1706575438910" class="icon" viewBox="0 0 1024 1024" version="1.1"
    xmlns="http://www.w3.org/2000/svg" p-id="1315"
    xmlns:xlink="http://www.w3.org/1999/xlink" width="200" height="200">
    <path d="M222.697314 222.813822A323.142215 323.142215 0 0 0 133.689183 512.01075c19.249596-87.371166 64.509646-172.745373 135.011166-243.296892C339.250867 198.13534 424.627075 152.90129 511.99724 133.650694c-101.629866-19.148598-210.683576 10.521779-289.299926 89.163128z" fill="#333333" p-id="1316"></path>
    <path d="M989.427216 822.122239L867.727771 700.422794a118.013522 118.013522 0 0 0-92.798051-34.124284c114.454597-165.551524 97.917944-394.384719-49.483961-541.812624-165.936516-165.986515-435.037866-165.986515-601.024381 0-165.936516 165.986515-165.936516 435.113864 0 601.10138 147.401905 147.426905 376.056104 163.83656 541.710626 49.380963-2.559946 33.279301 8.856814 67.531582 34.123284 92.798051l121.700444 121.725445c46.079033 45.977035 121.367452 45.977035 167.343487 0 46.20703-45.976035 46.20703-121.290453 0.127997-167.369486zM676.089795 676.103304c-138.672088 138.672088-363.38437 138.672088-502.00546 0-138.672088-138.672088-138.672088-363.435369 0-502.107457 138.621089-138.673088 363.332371-138.673088 502.00546 0 138.647089 138.569091 138.647089 363.435369 0 502.107457z" fill="#333333" p-id="1317"></path>
</svg>