<?xml version="1.0" standalone="no"?><!DOCTYPE svg PUBLIC "-//W3C//DTD SVG 1.1//EN" "http://www.w3.org/Graphics/SVG/1.1/DTD/svg11.dtd">
<svg t="1706523393738" class="icon" viewBox="0 0 1167 1024" version="1.1"
    xmlns="http://www.w3.org/2000/svg" p-id="1608"
    xmlns:xlink="http://www.w3.org/1999/xlink" width="227.9296875" height="200">
    <path d="M1127.46114 1.326425H39.792746c-21.222798 0-39.792746 17.243523-39.792746 39.792746v709.637306c0 21.222798 17.243523 39.792746 39.792746 39.792746h165.803109c11.937824 0 23.875648-5.305699 30.507772-14.590674l221.512953-273.243523 100.80829 83.564767c15.917098 13.264249 39.792746 11.937824 54.38342-3.979275L809.119171 371.398964c13.264249-9.284974 18.569948-26.528497 14.590674-42.445596-3.979275-15.917098-17.243523-27.854922-33.160622-30.507772-15.917098-2.65285-31.834197 5.305699-39.792746 18.569948L579.647668 500.062176 477.512953 416.497409c-7.958549-6.632124-18.569948-9.284974-29.181347-9.284974-10.611399 1.326425-19.896373 6.632124-26.528497 14.590674L187.025907 710.963731H79.585492V79.585492h1008.082902v631.378239H542.507772c-21.222798 0-39.792746 17.243523-39.792746 39.792746v193.658031H271.917098c-21.222798 0-39.792746 17.243523-39.792746 39.792746 0 21.222798 17.243523 39.792746 39.792746 39.792746h531.896374c21.222798 0 39.792746-17.243523 39.792746-39.792746 0-21.222798-17.243523-39.792746-39.792746-39.792746H582.300518V790.549223H1127.46114c21.222798 0 39.792746-17.243523 39.792746-39.792746V41.119171c0-10.611399-3.979275-19.896373-11.937824-27.854922-6.632124-7.958549-17.243523-11.937824-27.854922-11.937824" p-id="1609"></path>
    <path d="M842.279793 148.559585c-50.404145 0-96.829016 30.507772-116.725389 76.932643-19.896373 46.42487-9.284974 100.80829 27.854922 136.621762 35.813472 35.813472 90.196891 46.42487 136.621762 27.854922 46.42487-19.896373 78.259067-64.994819 78.259067-115.398964 0-33.160622-13.264249-64.994819-37.139896-88.870466-23.875648-23.875648-55.709845-37.139896-88.870466-37.139897m0 172.435234c-25.202073 0-46.42487-21.222798-46.424871-46.424871s21.222798-46.42487 46.424871-46.42487 46.42487 21.222798 46.42487 46.42487c0 11.937824-5.305699 23.875648-13.264248 33.160622-9.284974 7.958549-21.222798 13.264249-33.160622 13.264249" p-id="1610"></path>
</svg>