<?xml version="1.0" standalone="no"?><!DOCTYPE svg PUBLIC "-//W3C//DTD SVG 1.1//EN" "http://www.w3.org/Graphics/SVG/1.1/DTD/svg11.dtd">
<svg t="1706523414694" class="icon" viewBox="0 0 1084 1024" version="1.1"
    xmlns="http://www.w3.org/2000/svg" p-id="1743"
    xmlns:xlink="http://www.w3.org/1999/xlink" width="211.71875" height="200">
    <path d="M1024.635 788.239c-5.883-21.416-15.908-40.001-29.235-55.693l42.319-20.678-39.31-39.074-41.738 27.47c-17.247-10.119-37.634-16.873-59.403-18.827l14.35-44.402h-56.243l-9.947 48.724c-21.539 5.843-40.25 15.828-56.087 29.126l-20.522-42.090-39.369 39.074 27.648 41.442c-10.148 17.138-16.929 37.41-18.906 59.073l-44.736-14.256v55.295l49.079 9.886c5.871 21.353 15.877 39.883 29.184 55.519l-42.267 20.795 39.369 39.074 41.738-27.47c17.263 10.115 37.665 16.865 59.449 18.812l-14.337 44.416h55.769l9.947-48.724c21.516-5.851 40.203-15.842 56.014-29.138l20.829 42.105 39.31-39.074-27.648-41.442c10.129-17.058 16.899-37.243 18.872-58.815l44.772 14.058v-55.295l-49.079-9.886zM883.614 890.127c-32.697 0-59.202-26.506-59.202-59.202s26.506-59.202 59.202-59.202c32.697 0 59.202 26.506 59.202 59.202 0 0 0 0 0 0 0 32.697-26.505 59.202-59.202 59.202 0 0 0 0 0 0zM887.757 754.257c42.306 1.22 76.136 35.807 76.136 78.293 0 43.257-35.067 78.325-78.325 78.325-43.257 0-78.325-35.067-78.325-78.325 0-0.009 0-0.019 0-0.029 0.631-43.363 35.929-78.272 79.383-78.272 0.378 0 0.754 0.003 1.13 0.007zM399.278 550.956c7.636 0 14.622 0.591 22.2 0.591-0.017 0.002-0.040 0.003-0.059 0.003-0.327 0-0.591-0.265-0.591-0.591 0-0.001 0-0.002 0-0.003 16.348 0 29.602-13.253 29.602-29.601 0-16.348-13.253-29.602-29.602-29.602-6.503 0.7-14.047 1.098-21.685 1.098-4.868 0-9.699-0.162-14.486-0.479-108.45-3.039-195.719-92.213-195.719-201.771 0-111.496 90.384-201.88 201.88-201.88 7.443 0 14.79 0.402 22.025 1.188l0.347-0.078c0.054 0 0.116 0.001 0.179 0.001 16 0 28.976-12.953 29.008-28.946-0.36-15.93-13.246-28.73-29.171-28.952h-3.805c-3.252-0.144-7.067-0.227-10.9-0.227-143.72 0-260.352 115.968-261.431 259.433-0.001 0.123-0.001 0.146-0.001 0.171 0 95.46 51.89 178.799 129.003 223.352-150.375 55.001-256.949 197.319-257.295 364.572 0-0.141 0-0.11 0-0.075 0 12.148 0.688 24.133 2.028 35.924 1.564 12.98 13.714 24.061 28.454 24.061 15.891 0 28.773-12.882 28.773-28.773 0-0.599-0.018-1.195-0.055-1.784-0.829-7.186-1.303-15.607-1.303-24.139 0-1.893 0.023-3.778 0.070-5.659 2.035-181.263 149.678-327.646 331.509-327.646 0.401 0 0.805 0.001 1.207 0.002zM964.958 291.648c0.014-0.796 0.022-1.737 0.022-2.68 0-5.060-0.245-10.062-0.724-14.997-10.724-148.318-134.208-265.075-284.961-265.075-157.003 0-284.428 126.638-285.702 283.341 0.119 104.402 56.706 195.438 140.824 244.31-164.099 60.122-280.281 215.452-280.602 397.961 0-0.138 0-0.115 0-0.089 0 13.278 0.688 26.396 2.031 39.319 1.636 14.486 15.165 26.902 31.593 26.902 1.127 0 2.24-0.058 3.337-0.173 15.72-1.808 27.92-15.153 27.92-31.35 0-0.944-0.042-1.878-0.123-2.8-0.823-7.772-1.298-16.927-1.298-26.197 0-2.030 0.022-4.052 0.068-6.072 0.869-198.028 161.847-358.467 360.299-358.467 0.106 0 0.21 0 0.316 0 0.443 0.003 0.984 0.004 1.527 0.004 156.383 0 283.263-126.322 284.167-282.492 0.632-0.275 1.111-0.779 1.265-1.409zM664.565 512c-114.303-8.832-203.705-103.754-203.705-219.558 0-121.598 98.575-220.174 220.174-220.174 116.466 0 211.812 90.429 219.653 204.904 0.283 4.583 0.422 9.144 0.422 13.737 0 122.384-99.211 221.595-221.595 221.595-5.26 0-10.478-0.183-15.645-0.543z" fill="#2c2c2c" p-id="1744"></path>
</svg>