<?xml version="1.0" standalone="no"?><!DOCTYPE svg PUBLIC "-//W3C//DTD SVG 1.1//EN" "http://www.w3.org/Graphics/SVG/1.1/DTD/svg11.dtd">
<svg t="1706523635483" class="icon" viewBox="0 0 1024 1024" version="1.1"
    xmlns="http://www.w3.org/2000/svg" p-id="2154"
    xmlns:xlink="http://www.w3.org/1999/xlink" width="200" height="200">
    <path d="M898.133333 565.333333l-164.266666-36.266666c53.333333-27.733333 87.466667-81.066667 87.466666-145.066667v-72.533333c0-89.6-70.4-162.133333-160-162.133334s-162.133333 72.533333-162.133333 162.133334V384c0 64 36.266667 117.333333 87.466667 145.066667l-164.266667 36.266666c-51.2 10.666667-83.2 55.466667-83.2 106.666667v130.133333c0 40.533333 32 72.533333 70.4 72.533334h501.333333c40.533333 0 72.533333-32 72.533334-72.533334v-130.133333c0-51.2-36.266667-96-85.333334-106.666667zM565.333333 384v-72.533333c0-53.333333 44.8-98.133333 98.133334-98.133334 53.333333 0 96 44.8 96 98.133334V384c0 38.4-19.2 70.4-53.333334 87.466667l-42.666666 23.466666-42.666667-23.466666c-36.266667-17.066667-55.466667-49.066667-55.466667-87.466667z m356.266667 418.133333c0 4.266667-2.133333 8.533333-8.533333 8.533334H411.733333c-6.4 0-6.4-4.266667-6.4-8.533334v-130.133333c0-21.333333 12.8-40.533333 34.133334-44.8l164.266666-36.266667 59.733334-12.8 59.733333 12.8 164.266667 36.266667c19.2 4.266667 34.133333 23.466667 36.266666 44.8v130.133333z" p-id="2155"></path>
    <path d="M85.333333 448h322.133334c19.2 0 34.133333-17.066667 32-36.266667-2.133333-14.933333-14.933333-27.733333-32-27.733333H106.666667v-106.666667h307.2c14.933333 0 27.733333-10.666667 29.866666-23.466666 6.4-19.2-8.533333-40.533333-29.866666-40.533334H85.333333c-23.466667 0-42.666667 19.2-42.666666 42.666667v149.333333c0 23.466667 19.2 42.666667 42.666666 42.666667zM279.466667 512H85.333333c-23.466667 0-42.666667 19.2-42.666666 42.666667v149.333333c0 23.466667 19.2 42.666667 42.666666 42.666667h160c17.066667 0 32-14.933333 32-32s-14.933333-32-32-32H106.666667v-106.666667h172.8c14.933333 0 27.733333-10.666667 32-25.6 4.266667-19.2-10.666667-38.4-32-38.4z" p-id="2156"></path>
</svg>